<svg width="13" height="14" viewBox="0 0 13 14" fill="none" xmlns="http://www.w3.org/2000/svg">
    <path d="M6.6875 13.625C7.57617 13.625 8.28711 12.9141 8.28711 12H5.0625C5.0625 12.9141 5.77344 13.625 6.6875 13.625ZM12.1465 9.8418C11.6641 9.30859 10.7246 8.52148 10.7246 5.90625C10.7246 3.95117 9.35352 2.37695 7.47461 1.9707V1.4375C7.47461 1.00586 7.11914 0.625 6.6875 0.625C6.23047 0.625 5.875 1.00586 5.875 1.4375V1.9707C3.99609 2.37695 2.625 3.95117 2.625 5.90625C2.625 8.52148 1.68555 9.30859 1.20312 9.8418C1.05078 9.99414 0.974609 10.1973 1 10.375C1 10.8066 1.30469 11.1875 1.8125 11.1875H11.5371C12.0449 11.1875 12.3496 10.8066 12.375 10.375C12.375 10.1973 12.2988 9.99414 12.1465 9.8418Z" fill="#3F3F3F"/>
</svg>
