<svg width="13" height="14" viewBox="0 0 13 14" fill="none" xmlns="http://www.w3.org/2000/svg">
    <path d="M12.7969 7.125C12.7715 3.64648 9.95312 0.828125 6.5 0.828125C4.79883 0.828125 3.27539 1.51367 2.13281 2.58008L0.888672 1.33594C0.634766 1.08203 0.203125 1.25977 0.203125 1.61523V5.29688C0.203125 5.52539 0.380859 5.70312 0.609375 5.70312H4.29102C4.64648 5.70312 4.82422 5.27148 4.57031 5.01758L3.27539 3.72266C4.11328 2.93555 5.25586 2.45312 6.5 2.45312C9.06445 2.45312 11.1719 4.56055 11.1719 7.125C11.1719 9.71484 9.06445 11.7969 6.5 11.7969C5.38281 11.7969 4.39258 11.4414 3.58008 10.8066C3.35156 10.6035 2.99609 10.6289 2.76758 10.8574L2.48828 11.1367C2.23438 11.3906 2.25977 11.8223 2.53906 12.0508C3.60547 12.9141 5.00195 13.4473 6.5 13.4219C9.95312 13.4219 12.7969 10.6035 12.7969 7.125ZM8.20117 9.13086L8.42969 8.80078C8.6582 8.54688 8.60742 8.16602 8.32812 7.96289L7.3125 7.15039V4.48438C7.3125 4.1543 7.0332 3.875 6.70312 3.875H6.29688C5.94141 3.875 5.6875 4.1543 5.6875 4.48438V7.9375L7.33789 9.23242C7.5918 9.43555 7.97266 9.38477 8.20117 9.13086Z" fill="#3F3F3F"/>
</svg>
