<svg width="33" height="26" viewBox="0 0 33 26" fill="none" xmlns="http://www.w3.org/2000/svg">
    <path d="M16.0711 6.7472L5.54766 15.5884V25.0694C5.54766 25.5928 5.94801 26 6.46274 26H12.8683C13.3258 26 13.7262 25.5928 13.7262 25.0694V19.4855C13.7262 19.0201 14.1837 18.5548 14.6412 18.5548H18.3016C18.8163 18.5548 19.2166 19.0201 19.2166 19.4855V25.0694C19.2166 25.5928 19.6742 26 20.1317 26H26.5945C27.052 26 27.5095 25.5928 27.5095 25.0694V15.5302L16.9289 6.7472C16.8146 6.63087 16.643 6.57271 16.5286 6.57271C16.357 6.57271 16.1854 6.63087 16.0711 6.7472ZM32.714 12.7383L27.9671 8.72483V0.697987C27.9671 0.290828 27.6239 0 27.2808 0H24.078C23.6776 0 23.3917 0.290828 23.3917 0.697987V4.88591L18.2444 0.581655C17.7868 0.232662 17.1577 0 16.5286 0C15.8423 0 15.2132 0.232662 14.7556 0.581655L0.285962 12.7383C0.114385 12.8546 0 13.0872 0 13.2617C0 13.4362 0.114385 13.6107 0.171577 13.7271L1.65858 15.5302C1.77296 15.7047 1.94454 15.7629 2.17331 15.7629C2.34489 15.7629 2.51646 15.7047 2.63085 15.5884L16.0711 4.36242C16.1854 4.24608 16.357 4.18792 16.5286 4.18792C16.643 4.18792 16.8146 4.24608 16.9289 4.36242L30.3692 15.5884C30.4835 15.7047 30.6551 15.7629 30.8267 15.7629C31.0555 15.7629 31.227 15.7047 31.3414 15.5302L32.8284 13.7271C32.9428 13.6107 33 13.4362 33 13.2617C33 13.0872 32.8856 12.8546 32.714 12.7383Z" fill="#7A7A7A"/>
</svg>
