<svg width="13" height="14" viewBox="0 0 13 14" fill="none" xmlns="http://www.w3.org/2000/svg">
    <path d="M13 5.11914C13 2.63086 10.9941 0.625 8.50586 0.625C6.04297 0.650391 4.0625 2.63086 4.0625 5.09375C4.0625 5.60156 4.13867 6.05859 4.26562 6.51562L0.177734 10.6035C0.0507812 10.7305 0 10.8828 0 11.0352V13.0156C0 13.3711 0.253906 13.625 0.609375 13.625H3.45312C3.7832 13.625 4.0625 13.3711 4.0625 13.0156V12H5.07812C5.4082 12 5.6875 11.7461 5.6875 11.3906V10.375H6.62695C6.80469 10.375 6.95703 10.2988 7.08398 10.1719L7.69336 9.48633C7.94727 9.53711 8.22656 9.5625 8.53125 9.5625C10.9941 9.5625 13 7.58203 13 5.11914ZM8.53125 3.875C8.53125 3.21484 9.06445 2.65625 9.75 2.65625C10.4102 2.65625 10.9688 3.21484 10.9688 3.875C10.9688 4.56055 10.4102 5.09375 9.75 5.09375C9.06445 5.09375 8.53125 4.56055 8.53125 3.875Z" fill="#3F3F3F"/>
</svg>
