<svg width="37" height="30" viewBox="0 0 37 30" fill="none" xmlns="http://www.w3.org/2000/svg">
    <path d="M30.7002 24.8729C31.4054 24.8729 32.0166 24.3087 32.0166 23.5565V6.4904C32.0166 5.78519 31.4524 5.17401 30.7002 5.17401C29.995 5.17401 29.3838 5.73818 29.3838 6.4904V23.5565C29.3838 24.2617 29.995 24.8729 30.7002 24.8729Z" fill="white"/>
    <path d="M30.8412 0.190613H35.6836C36.3888 0.190613 37 0.75478 37 1.507V6.39646C37 7.10167 36.4358 7.71285 35.6836 7.71285C34.9314 7.71285 34.3672 7.14868 34.3672 6.39646V2.77638H30.7942C30.0889 2.77638 29.4778 2.21222 29.4778 1.45999C29.5248 0.754781 30.0889 0.190613 30.8412 0.190613Z" fill="white"/>
    <path d="M30.8412 29.8095H35.6836C36.3888 29.8095 37 29.2453 37 28.4931V23.6506C37 22.9454 36.4358 22.3342 35.6836 22.3342C34.9314 22.3342 34.3672 22.8984 34.3672 23.6506V27.2237H30.7942C30.0889 27.2237 29.4778 27.7879 29.4778 28.5401C29.5248 29.2453 30.0889 29.8095 30.8412 29.8095Z" fill="white"/>
    <path d="M6.20582 0.190613H1.31637C0.611156 0.190613 -2.43187e-05 0.75478 -2.43187e-05 1.507V6.39646C-2.43187e-05 7.10167 0.564142 7.71285 1.31637 7.71285C2.02158 7.71285 2.63276 7.14868 2.63276 6.39646V2.77638H6.20582C6.91103 2.77638 7.52222 2.21222 7.52222 1.45999C7.4752 0.754781 6.91103 0.190613 6.20582 0.190613Z" fill="white"/>
    <path d="M6.20582 29.8095H1.31637C0.611156 29.8095 -2.43187e-05 29.2453 -2.43187e-05 28.4931V23.6506C-2.43187e-05 22.9454 0.564142 22.3342 1.31637 22.3342C2.02158 22.3342 2.63276 22.8984 2.63276 23.6506V27.2237H6.20582C6.91103 27.2237 7.52222 27.7879 7.52222 28.5401C7.4752 29.2453 6.91103 29.8095 6.20582 29.8095Z" fill="white"/>
    <path d="M15.8906 24.8729C16.5959 24.8729 17.207 24.3087 17.207 23.5565V6.4904C17.207 5.78519 16.6429 5.17401 15.8906 5.17401C15.1854 5.17401 14.5743 5.73818 14.5743 6.4904V23.5565C14.5743 24.2617 15.1384 24.8729 15.8906 24.8729Z" fill="white"/>
    <path d="M5.97072 24.8729C6.67593 24.8729 7.28711 24.3087 7.28711 23.5565V6.4904C7.28711 5.78519 6.72294 5.17401 5.97072 5.17401C5.26551 5.17401 4.65433 5.73818 4.65433 6.4904V23.5565C4.70134 24.2617 5.26551 24.8729 5.97072 24.8729Z" fill="white"/>
    <path d="M25.7637 19.9364C26.4689 19.9364 27.0801 19.3722 27.0801 18.62V6.4904C27.0801 5.78519 26.5159 5.17401 25.7637 5.17401C25.0585 5.17401 24.4473 5.73818 24.4473 6.4904V18.667C24.4473 19.3722 25.0585 19.9364 25.7637 19.9364Z" fill="white"/>
    <path d="M25.7637 22.3812C25.0585 22.3812 24.4473 22.9453 24.4473 23.6976C24.4473 24.4028 25.0115 25.014 25.7637 25.014C26.4689 25.014 27.0801 24.4498 27.0801 23.6976C27.0801 22.9453 26.4689 22.3812 25.7637 22.3812Z" fill="white"/>
    <path d="M20.8272 22.3812C20.122 22.3812 19.5108 22.9453 19.5108 23.6976C19.5108 24.4028 20.0749 25.014 20.8272 25.014C21.5324 25.014 22.1436 24.4498 22.1436 23.6976C22.0965 22.9453 21.5324 22.3812 20.8272 22.3812Z" fill="white"/>
    <path d="M10.9544 22.3812C10.2492 22.3812 9.63797 22.9453 9.63797 23.6976C9.63797 24.4028 10.2021 25.014 10.9544 25.014C11.6596 25.014 12.2708 24.4498 12.2708 23.6976C12.2237 22.9453 11.6596 22.3812 10.9544 22.3812Z" fill="white"/>
    <path d="M20.8272 19.9364C21.5324 19.9364 22.1436 19.3722 22.1436 18.62V6.4904C22.1436 5.78519 21.5794 5.17401 20.8272 5.17401C20.122 5.17401 19.5108 5.73818 19.5108 6.4904V18.667C19.5108 19.3722 20.122 19.9364 20.8272 19.9364Z" fill="white"/>
    <path d="M10.9544 19.9364C11.6596 19.9364 12.2708 19.3722 12.2708 18.62V6.4904C12.2708 5.78519 11.7066 5.17401 10.9544 5.17401C10.2492 5.17401 9.63797 5.73818 9.63797 6.4904V18.667C9.63797 19.3722 10.2021 19.9364 10.9544 19.9364Z" fill="white"/>
</svg>
