<svg width="17" height="17" viewBox="0 0 17 17" fill="none" xmlns="http://www.w3.org/2000/svg">
    <path d="M15.7812 14.3438L12.6562 11.2188C12.5 11.0938 12.3125 11 12.125 11H11.625C12.4688 9.90625 13 8.53125 13 7C13 3.4375 10.0625 0.5 6.5 0.5C2.90625 0.5 0 3.4375 0 7C0 10.5938 2.90625 13.5 6.5 13.5C8 13.5 9.375 13 10.5 12.125V12.6562C10.5 12.8438 10.5625 13.0312 10.7188 13.1875L13.8125 16.2812C14.125 16.5938 14.5938 16.5938 14.875 16.2812L15.75 15.4062C16.0625 15.125 16.0625 14.6562 15.7812 14.3438ZM6.5 11C4.28125 11 2.5 9.21875 2.5 7C2.5 4.8125 4.28125 3 6.5 3C8.6875 3 10.5 4.8125 10.5 7C10.5 9.21875 8.6875 11 6.5 11Z" fill="#585858"/>
</svg>
