<svg width="24" height="28" viewBox="0 0 24 28" fill="none" xmlns="http://www.w3.org/2000/svg">
    <path d="M12 14C15.75 14 18.8571 10.8828 18.8571 7C18.8571 3.17188 15.75 0 12 0C8.19643 0 5.14286 3.17188 5.14286 7C5.14286 10.8828 8.19643 14 12 14ZM16.7679 15.75H15.8571C14.6786 16.3516 13.3929 16.625 12 16.625C10.6071 16.625 9.26786 16.3516 8.08929 15.75H7.17857C3.21429 15.75 0 19.0859 0 23.1328V25.375C0 26.8516 1.125 28 2.57143 28H21.4286C22.8214 28 24 26.8516 24 25.375V23.1328C24 19.0859 20.7321 15.75 16.7679 15.75Z" fill="#7A7A7A"/>
</svg>
